<svg aria-hidden="true" style="position: absolute; width: 0; height: 0; overflow: hidden;" version="1.1" xmlns="http://www.w3.org/2000/svg" xmlns:xlink="http://www.w3.org/1999/xlink">
<defs>
<symbol id="icon-chevron-left" viewBox="0 0 20 20">
<path d="M12.452 4.516c0.446 0.436 0.481 1.043 0 1.576l-3.747 3.908 3.747 3.908c0.481 0.533 0.446 1.141 0 1.574-0.445 0.436-1.197 0.408-1.615 0-0.418-0.406-4.502-4.695-4.502-4.695-0.223-0.217-0.335-0.502-0.335-0.787s0.112-0.57 0.335-0.789c0 0 4.084-4.287 4.502-4.695s1.17-0.436 1.615 0z"></path>
</symbol>
<symbol id="icon-chevron-right" viewBox="0 0 20 20">
<path d="M9.163 4.516c0.418 0.408 4.502 4.695 4.502 4.695 0.223 0.219 0.335 0.504 0.335 0.789s-0.112 0.57-0.335 0.787c0 0-4.084 4.289-4.502 4.695-0.418 0.408-1.17 0.436-1.615 0-0.446-0.434-0.481-1.041 0-1.574l3.747-3.908-3.747-3.908c-0.481-0.533-0.446-1.141 0-1.576s1.197-0.409 1.615 0z"></path>
</symbol>
<symbol id="icon-heart" viewBox="0 0 20 20">
<path d="M17.19 4.155c-1.672-1.534-4.383-1.534-6.055 0l-1.135 1.042-1.136-1.042c-1.672-1.534-4.382-1.534-6.054 0-1.881 1.727-1.881 4.52 0 6.246l7.19 6.599 7.19-6.599c1.88-1.726 1.88-4.52 0-6.246z"></path>
</symbol>
<symbol id="icon-location-pin" viewBox="0 0 20 20">
<path d="M10 2.009c-2.762 0-5 2.229-5 4.99 0 4.774 5 11 5 11s5-6.227 5-11c0-2.76-2.238-4.99-5-4.99zM10 9.76c-1.492 0-2.7-1.209-2.7-2.7s1.208-2.7 2.7-2.7c1.49 0 2.699 1.209 2.699 2.7s-1.209 2.7-2.699 2.7z"></path>
</symbol>
<symbol id="icon-magnifying-glass" viewBox="0 0 20 20">
<path d="M17.545 15.467l-3.779-3.779c0.57-0.935 0.898-2.035 0.898-3.21 0-3.417-2.961-6.377-6.378-6.377s-6.186 2.769-6.186 6.186c0 3.416 2.961 6.377 6.377 6.377 1.137 0 2.2-0.309 3.115-0.844l3.799 3.801c0.372 0.371 0.975 0.371 1.346 0l0.943-0.943c0.371-0.371 0.236-0.84-0.135-1.211zM4.004 8.287c0-2.366 1.917-4.283 4.282-4.283s4.474 2.107 4.474 4.474c0 2.365-1.918 4.283-4.283 4.283s-4.473-2.109-4.473-4.474z"></path>
</symbol>
<symbol id="icon-shopping-bag" viewBox="0 0 20 20">
<path d="M18.121 3.271c-0.295-0.256-1.906-1.731-2.207-1.991-0.299-0.259-0.756-0.28-1.102-0.28h-9.624c-0.345 0-0.802 0.021-1.102 0.28s-1.912 1.736-2.207 1.991c-0.297 0.256-0.543 0.643-0.464 1.192 0.079 0.551 1.89 13.661 1.937 13.973 0.046 0.311 0.318 0.557 0.648 0.564h12c0.33-0.007 0.602-0.253 0.648-0.565s1.858-13.422 1.938-13.973c0.078-0.548-0.168-0.935-0.465-1.191zM10 11.973c-3.248 0-3.943-4.596-4.087-5.543h1.837c0.276 1.381 0.904 3.744 2.25 3.744s1.975-2.363 2.25-3.744h1.838c-0.145 0.947-0.84 5.543-4.088 5.543zM3.17 4.006l1.83-2.006h10l1.83 2.006h-13.66z"></path>
</symbol>
<symbol id="icon-user" viewBox="0 0 20 20">
<path d="M7.725 2.146c-1.016 0.756-1.289 1.953-1.239 2.59 0.064 0.779 0.222 1.793 0.222 1.793s-0.313 0.17-0.313 0.854c0.109 1.717 0.683 0.976 0.801 1.729 0.284 1.814 0.933 1.491 0.933 2.481 0 1.649-0.68 2.42-2.803 3.334-2.13 0.918-4.326 2.073-4.326 4.073v1h18v-1c0-2-2.197-3.155-4.328-4.072-2.123-0.914-2.801-1.684-2.801-3.334 0-0.99 0.647-0.667 0.932-2.481 0.119-0.753 0.692-0.012 0.803-1.729 0-0.684-0.314-0.854-0.314-0.854s0.158-1.014 0.221-1.793c0.065-0.817-0.398-2.561-2.3-3.096-0.333-0.34-0.558-0.881 0.466-1.424-2.24-0.105-2.761 1.067-3.954 1.929z"></path>
</symbol>
</defs>
</svg>
